<svg xmlns="http://www.w3.org/2000/svg" viewBox="0 0 32 32">
  <!-- Brain icon for Memory Orchestrator -->
  <rect width="32" height="32" rx="7" fill="#6366f1"/>
  <!-- Brain outline path (simplified left+right hemisphere) -->
  <path d="
    M16 6
    C13 6 11 7.5 10.5 9.5
    C9 9.2 7 10 6.5 12
    C5 12.5 4 14 4.5 16
    C4 17.5 4.5 19.5 6 20.5
    C6.5 22.5 8 24 10 24
    C11 25.5 13 26 15 25.5
    L15 22
    C13 22 11.5 21 11 19.5
    C9.5 19.5 8.5 18.5 8.5 17
    C7.5 16.5 7 15.5 7.5 14.5
    C7.2 13.5 8 12.5 9 12.5
    C9.2 11 10.5 10 12 10.5
    C12.5 9 14 8 16 8
    Z
  " fill="#e0e7ff" opacity="0.95"/>
  <path d="
    M16 6
    C19 6 21 7.5 21.5 9.5
    C23 9.2 25 10 25.5 12
    C27 12.5 28 14 27.5 16
    C28 17.5 27.5 19.5 26 20.5
    C25.5 22.5 24 24 22 24
    C21 25.5 19 26 17 25.5
    L17 22
    C19 22 20.5 21 21 19.5
    C22.5 19.5 23.5 18.5 23.5 17
    C24.5 16.5 25 15.5 24.5 14.5
    C24.8 13.5 24 12.5 23 12.5
    C22.8 11 21.5 10 20 10.5
    C19.5 9 18 8 16 8
    Z
  " fill="#e0e7ff" opacity="0.95"/>
  <!-- Center dividing line -->
  <line x1="16" y1="8" x2="16" y2="25.5" stroke="#6366f1" stroke-width="1" opacity="0.6"/>
  <!-- Brain wrinkle lines left -->
  <path d="M10 14 Q12 15.5 10.5 17" stroke="#818cf8" stroke-width="1" fill="none" stroke-linecap="round"/>
  <path d="M9.5 17.5 Q11.5 18.5 11 20" stroke="#818cf8" stroke-width="1" fill="none" stroke-linecap="round"/>
  <!-- Brain wrinkle lines right -->
  <path d="M22 14 Q20 15.5 21.5 17" stroke="#818cf8" stroke-width="1" fill="none" stroke-linecap="round"/>
  <path d="M22.5 17.5 Q20.5 18.5 21 20" stroke="#818cf8" stroke-width="1" fill="none" stroke-linecap="round"/>
</svg>